<?xml version="1.0" encoding="UTF-8"?>
<svg version="1.1" viewBox="0 0 2048 2048" width="627" height="627" xmlns="http://www.w3.org/2000/svg">
<path transform="translate(49,38)" d="m0 0h1964v40l-1 2 1 2 1 348v233l-8 7-18 12-13 9-6 6-7 2-11 9-5 3-11 7-22 16-6 5-11 6-9 7-11 7-17 12-15 10-17 12-8 6-16 10-10 8-16 10-18 13-12 8-14 9-14 10-18 13-10 7-4 3-8 4-12 9-20 14-11 8-5 4-13 8-8 6-16 10-18 13-8 6-11 7-15 10-16 11-20 14-12 8-6 5-8 4-16 12-18 12-23 16-14 10-14 9-14 10-10 7-19 13-15 10-20 14-14 10-18 12-5 4-15 10-14 10-33 22-17 12-15 10-13 9-16 11-15 11-5 4-10 6-12 8-13 9-11 7-22 16-5 1-3 19 1 5-1 2v25h8l7-1h5l3 2 3-2 6 1v2l7-3 4 2 8-2 4 1v2l6-1 2 1 5-3 9 1 2-1 4 2h5l3-2 6 1 7 1 3-2 6 1 7 1 1-1h6l5 1h14l1-1h9l7-1 9 1 8 1 1-1h15l1 1h9l1-1h34l2 1 3-1h12l8 1 1-1h9l8-1 3 1h13l4 1 2-2h8l5 1 1-1h7l4 1h11 4l4-1 12 2 3-2 13 1v2l4-2h7v2l6-3h8l5 3v-2h6l3 1 5-2 8 1 3-1 7 2 1-1h8l4-1h15l7 1 5-1 10 2 4-2h17l6 1 5-1 5 1 10 1 2-1h10l3-1 9 2 5-2 2 1 20 1 3-2 7 1h13l4-1 4 2 11-1h8l4 1 4-2 10 3v-2l3-1 10 2 2-2 8 1h26l4 1 3-2 10 1 4-1 8 2 4-2h9l6 1 5-1 9 3v-2l11-1 5 2 5-2 9 2 2-2h8l4 1 5-1 5 1 3-1 5 2 3-2h8l5 2 5-2 4 2 6-1 3 1 3-1 5 1 5-2 9 2 6-2 17 1 5 1 1-1h15l7 2 1 2v16l2 4-2 6v19l2 3-1 4-1 3 2 5-2 4 2 3-1 5-1 4v8l2 3-2 9 1 6 1 2-1 11-1 5 2 3-2 8v9l2 3v6l-2 2-1 6h2l1 4-2 7 1 6 1 4-2 4 2 3-2 8v29l2 3v5l-2 3v21l2 3-1 4v4l1 4-2 5 2 5-2 6v8l2 5-2 5 1 1v13l-1 3v16l1 1-1 48 2 5-1 2-1 19 2 5-2 5v20l1 4v12l-1 16 2 5-2 5v39l2 5-2 6 2 7-2 6v18l1 1v20l-1 4v8l2 4v5l-2 3 1 6 1 4-2 3v5l2 2-1 5-1 1v5l2 2-1 4-2 6h-1963l-4-5-1-49-1-1v-5h2l-1-20-1-6 1-1v-12l-1-9 1-4v-112l-1-4 1-1 1-139v-256l2-4 11-9 43-30 14-10 12-8 14-10 18-13 12-9 30-20 30-22 14-9 28-20 19-13 12-9 11-8 27-18 18-13 10-7 14-10 18-12 16-12 25-17 20-14 14-10 15-11 36-24 13-10 12-8 15-11 20-14 33-23 19-13 12-9 21-14 13-10 12-8 11-8 24-16 4-5 14-8 14-10 13-9 22-16 11-7 10-7 17-12 10-8 9-5 10-8 18-12 8-6 21-14 14-10 11-8 8-6 16-10 13-10 2-1 1-5 1-33v-13h-915l-1-1-1-11-1-4 2-3-1-5-1-6 1-1v-16l-1-5 1-5-1-5 2-4-2-12 1-5-1-5 1-1v-24l-1-5 2-3-2-13 2-3-1-21-1-3v-11l2-3-2-20 2-4-2-10 2-2-1-6-1-5 2-2-1-9-1-5 1-5-1-5 1-15v-30l-1-6 1-2v-14l-1-7 1-2v-28l-1-6 1-1v-65l-1-6 1-1v-24l-1-13 2-4-2-8 1-5-1-7 1-17-1-2v-7l2-5-2-3 1-4v-70l-1-2v-8l1-1-1-9 1-6-1-4 2-8-1-10z" fill="#FEFEFE"/>
</svg>
