<?xml version="1.0" encoding="UTF-8"?>
<svg version="1.1" viewBox="0 0 1024 1024" width="1024" height="1024" xmlns="http://www.w3.org/2000/svg">
<path transform="translate(504,27)" d="m0 0h15l13 3 14 7 10 9 429 429 7 12 4 13 1 5v15l-4 16-6 12-11 12-424 424-13 8-13 4-5 1h-16l-12-3-12-5-9-7-433-433-7-12-4-12-1-6v-16l3-13 7-14 9-10 289-289 4 2 106 106-1 7-3 14v18l3 14 6 14 8 11 3 3v2l4 2 10 8 11 6v267l-12 6-10 8-8 8-8 13-5 14-2 10v19l4 16 7 14 7 9 9 9 13 8 13 5 9 2h23l15-4 14-7 11-9 8-9 7-12 5-15 2-15-1-14-4-15-6-12-10-13-11-9-9-5v-264l7 6 93 93-2 9-2 10v20l4 16 8 16 9 11 10 8 16 8 9 3 5 1h24l15-4 14-7 11-9 8-9 7-12 5-15 1-5v-24l-4-15-8-15-10-12-12-9-13-6-16-4h-20l-14 3-107-107 1-8 1-5v-24l-4-15-8-15-10-12-12-9-13-6-16-4h-19l-15 3-111-111 6-7 87-87 13-8 13-4z" fill="#F05133"/>
</svg>
