<?xml version="1.0" encoding="UTF-8"?>
<svg version="1.1" viewBox="0 0 2048 2048" width="4096" height="4096" xmlns="http://www.w3.org/2000/svg">
<path transform="translate(1012,104)" d="m0 0h24l20 3 18 5 18 8 24 14 156 90 24 14 28 16 24 14 156 90 24 14 182 105 24 14 26 15 17 10 14 11 8 7 7 8 10 13 9 16 7 16 5 18 2 12 1 11v791l-2 18-4 17-6 16-10 19-8 11-11 13-12 11-16 11-338 195-24 14-28 16-24 14-28 16-24 14-28 16-24 14-156 90-15 8-19 7-19 4-9 1h-23l-19-3-15-4-21-9-27-16-29-17-98-58-71-42-16-10-7-7-1-2v-6l6-5 46-17 20-9 27-14 18-10 5-1 8 2 29 17 25 15 29 17 25 15 29 17 25 15 16 9 3 1h9l16-8 52-30 24-14 28-16 24-14 28-16 24-14 28-16 24-14 416-240 17-10 5-5 3-6v-791l-3-6-5-5-26-15-24-14-28-16-24-14-28-16-26-15-24-14-28-16-24-14-28-16-24-14-28-16-24-14-28-16-24-14-28-16-24-14-28-16-24-14-28-16-24-14-28-16-24-14-28-16-24-14-28-16-6-2h-8l-16 8-24 14-130 75-24 14-130 75-24 14-156 90-24 14-28 16-24 14-78 45-24 14-6 8-1 3v789l4 8 5 4 28 16 156 90 17 8 21 7 22 4h24l16-3 13-5 13-7 13-11 10-13 8-17 4-15 1-7 1-781 4-8 5-4 9-3h88l10 3 7 8 2 6v785l-2 25-4 25-6 22-8 21-8 16-10 16-11 13-9 10-11 9-12 9-18 10-16 7-19 6-18 4-22 3-17 1h-26l-26-2-25-5-36-12-32-14-19-9-24-14-28-16-130-75-16-12-11-10-9-11-9-13-10-19-7-21-3-16-1-12v-791l2-18 4-17 6-16 10-19 10-14 14-15 15-12 22-13 130-75 24-14 156-90 24-14 156-90 24-14 130-75 21-12 15-7 20-6z" fill="#539E43"/>
<path transform="translate(1191,661)" d="m0 0h30l44 2 38 4 29 5 30 7 22 7 21 8 21 10 20 12 13 10 13 11 14 14 11 14 10 15 12 23 8 20 7 24 5 26 2 15v17l-5 8-8 5h-99l-6-3-7-8-7-26-8-21-8-15-10-14-14-14-13-9-15-8-19-7-25-6-28-4-27-2h-69l-32 3-23 4-19 5-19 7-16 9-13 11-8 11-6 12-4 17v28l3 12 6 10 9 8 17 9 27 9 30 7 44 8 59 9 72 10 43 7 43 9 31 8 30 10 21 9 16 8 15 9 12 9 12 11 10 10 12 17 8 16 6 16 5 19 3 19 1 12v34l-3 25-5 22-7 20-9 19-10 16-10 13-11 12-13 13-17 13-15 10-24 13-26 11-31 10-34 8-30 5-39 4-16 1h-76l-41-3-32-4-28-5-36-9-32-11-20-9-21-11-21-14-11-9-10-9-15-15-10-13-11-17-8-15-9-23-6-21-4-23-2-21v-21l4-8 6-5 5-2h96l8 4 6 7 5 25 6 22 8 19 10 16 13 14 15 11 15 8 21 8 28 7 26 4 32 3 20 1h63l32-2 32-4 27-6 21-7 16-8 11-7 12-11 9-12 7-16 4-18v-29l-3-12-6-11-10-10-11-7-16-8-27-9-28-7-44-8-52-7-81-9-41-6-36-7-31-8-27-9-21-9-23-12-17-12-14-12-8-8-13-17-10-18-6-15-6-21-4-27v-41l4-27 6-21 6-15 8-16 9-14 10-13 12-13 12-11 13-10 17-11 27-14 23-9 22-7 24-6 27-5 34-4z" fill="#539E43"/>
</svg>
