<?xml version="1.0" encoding="UTF-8"?>
<svg version="1.1" viewBox="0 0 2048 2048" width="3000" height="3000" xmlns="http://www.w3.org/2000/svg">
<path transform="translate(1056,175)" d="m0 0h15l27 1 31 3 33 5 37 8 34 10 27 10 25 11 25 12 21 12 19 12 20 14 12 9 14 11 14 12 10 9 15 14 13 13 7 8 12 13 9 11 14 17 14 19 16 24 14 24 14 27 15 31 13 28 2 5v3l-68 1-30 3-23 5-24 8-21 11-14 10-12 11-8 9-9 14-8 16-6 19-3 15-2 23v13l2 28 4 28 6 27 8 28 9 26 15 36 13 28 19 39 20 39 18 35 13 23 15 28 16 33 13 23 12 18 20 26 14 18v2l-28 13-12 8-10 9-7 8-8 14-5 12-4 14-2 14-2 34-10 98-15 124-13 98-9 60-6 30-6 23-7 21-7 16-11 18-11 14-13 13-13 10-16 10-17 8-33 11-32 9-31 6-8 1h-35l-17-3-17-5-19-9-13-9-10-9-10-10-10-14-10-17-9-17-6-15-5-16-5-30-4-32-5-59-3-46-1-102v-201l-3-18-5-15-8-16-12-16-13-13-15-10-16-7-13-4-32-1-1-2 14-42 30-75 19-48 12-31 7-24 5-24 3-27 2-41 1-36v-20l-1-23-5-39-10-60-8-38-8-24-8-16-8-12-9-11-8-8-15-11-16-9-18-7-22-5-21-2h-20l-25 2-24 4-24 6-33 11-30 13-23 11h-2l1-21 9-56 8-39 10-37 11-33 11-27 12-26 11-21 12-20 8-12 10-14 9-11 12-14 25-25 11-9 16-12 19-12 16-9 20-9 24-9 29-8 26-5 30-3z" fill="#336791"/>
<path transform="translate(505,179)" d="m0 0h24l57 4 38 4 37 6 42 9 45 12 32 10-2 5-11 13-11 14-14 18-13 18-10 15-10 18-12 23-13 30-11 29-10 30-10 37-8 36-5 28-5 40-5 56-1 34 4 91v63l-3 46-7 75-1 29 1 21 4 28 6 25 8 24 8 18 8 16 10 17 12 17 13 16 12 13 7 7 6 5-6 8-10 11-7 8-18 20-7 8-10 11-7 8-11 12-7 8-12 14-9 10-9 11-12 13-9 11-14 15-7 8-13 13-15 11-11 5-14 3-16-2-12-5-11-7-13-10-13-12-10-11-13-17-13-20-13-22-13-23-14-28-18-41-18-44-13-35-17-49-17-52-17-58-15-57-20-81-14-63-12-60-13-83-3-31v-64l2-34 4-34 6-31 8-30 9-26 11-25 9-17 12-19 11-14 9-10 7-8 11-11 11-9 13-10 19-12 21-11 25-10 25-8 27-6 19-3z" fill="#336791"/>
<path transform="translate(1357,48)" d="m0 0h174l26 6 53 11 31 8 36 12 24 10 26 12 23 12 27 16 18 12 19 14 14 12 11 9 15 14 8 7 16 15 16 17 10 11 11 14 12 17 10 18 9 21 6 18 5 21 4 36 2 27v41l-2 43-3 36-5 38-7 39-11 49-12 47-15 52-12 38-16 46-14 36-15 36-21 49-12 27-14 29-18 36-12 22-14 27-12 22-18 34 1 1 38-4 41-7 27-4 21-2h26l14 2 16 5 16 8 12 9 12 12 9 14 6 14 4 18v27l-3 15-6 16-8 15-10 13-10 11-7 8-16 15-14 11-16 12-19 12-26 15-22 11-23 9-24 7-39 9-38 7-27 3-19 1-64 1-2 2-2 15-2 54-5 60-5 50-8 54-6 27-10 36-15 46-10 24-12 23-12 19-10 14-11 14-11 12-5 6-8 7-11 10-18 13-21 13-24 12-26 10-26 8-40 10-35 7-26 3h-30l-21-2-26-5-19-6-17-7-17-9-17-12-14-12-15-15-9-11-10-14-9-15-8-16-12-28-11-31-10-34-7-31-6-45-7-71-1-16-2-75-1-24v-17l-25 9-29 8-21 4-16 2-34 2h-17l-35-3-32-5-25-6-27-9-29-14-14-9-15-12-7-8-2-2-6 1-11 9-20 12-17 8-22 7-23 4h-35l-22-4-24-8-17-8-19-12-12-9-13-11-15-14-12-13-11-13-12-16-14-20-17-28-15-27-17-33-15-32-15-36-14-37-21-58-14-41-15-49-18-64-15-55-11-44-14-63-14-67-9-45-7-42-4-32 1-7 2-5-1-7-6-4v-109l7-6-1-9-2-5 1-11 7-45 7-33 8-29 10-29 11-25 8-17 10-18 12-19 12-17 11-14 12-14 24-24 11-9 17-13 21-14 17-10 25-13 27-11 30-10 31-8 32-6 34-4 15-1h71l35 2 42 4 38 5 26 5 37 9 39 10 50 14 6 1h8l10-3 24-13 24-10 36-12 26-7 36-7 24-3 14-1h57l79 4 38 5 16 1 14-2 32-9 32-7 38-6 20-3zm62 50-48 3-36 4-33 6-65 15-19 5-8 3h-9l-35-7-46-6-35-3h-32l-49 3-30 4-30 7-36 12-26 11-27 14-18 11h-8l-69-22-41-11-41-9-35-6-67-8-13-1h-73l-30 2-29 4-34 7-29 8-27 10-29 14-19 11-19 13-14 11-12 11-10 9-9 10-12 14-14 19-13 21-14 27-11 26-11 33-6 25-6 38-6 48-2 25-1 38 1 30 3 31 11 77 10 52 13 61 15 65 12 48 19 70 17 57 17 52 19 53 15 41 15 36 13 29 19 38 13 23 14 23 10 15 10 14 11 14 9 10 7 8 9 9 11 9 13 10 15 9 14 6 13 4 11 2h30l18-4 16-6 14-8 12-9 12-11 12-12 7-8 12-14 13-15 12-14 11-12 7-8 12-14 11-12 7-8 9-10 7-8 9-10 7-8 18-20 12-13 5-3 8 1 27 11 24 7 24 4 24 3-12 15-10 13-9 11-12 12-13 8-25 8-38 10-38 9-21 7-17 8-9 7-9 9-7 14-2 8v13l4 13 7 11 11 11 15 10 16 9 23 9 24 6 26 4 21 2h36l39-3 24-5 21-7 25-12 29-17 21-13 2-1v24l1 74 2 75 3 65 4 53 5 44 5 30 5 19 8 22 12 25 13 21 10 13 9 11 11 12 10 9 17 12 16 9 19 8 22 6 20 3 13 1h34l27-3 31-7 26-7 30-10 25-11 18-10 16-11 11-9 10-9 11-11 13-17 9-14 12-23 9-23 8-26 7-33 8-49 7-51 7-53 7-56 11-90 4-36v-3l38 6 23 1h18l25-1 40-4 33-5 30-7 22-7 19-7 20-9 19-10 19-12 12-9 10-8 14-12 20-20 7-10 6-12 3-14-1-13-4-10-6-8-8-7-12-5-12-2h-14l-24 3-36 6-56 7-11 1h-34l-27-3-16-4-16-8 2-6 14-22 12-19 17-28 14-25 10-18 14-26 18-35 19-38 16-36 17-40 15-37 15-39 14-40 15-45 14-47 13-49 9-40 7-38 5-35 6-59 1-16v-31l-3-43-3-28-5-19-7-19-8-16-10-16-11-13-9-10-11-12-22-22-11-9-12-11-11-9-18-14-18-12-20-12-24-13-28-13-31-12-31-10-40-10-33-6-30-4-25-2z" fill="#336791"/>
<path transform="translate(1421,154)" d="m0 0h42l32 2 34 4 34 6 40 10 30 10 22 9 25 12 20 11 24 16 18 13 19 14 11 9 10 9 8 7 8 8 7 8 13 15 13 17 7 12 6 17 3 16 3 37 1 24v21l-2 33-6 46-10 57-9 41-11 44-14 48-13 40-16 44-14 35-19 46-13 30-16 36-18 38-13 26-12 22-14 26-16 27-15 25-11 18-2 3-5-2-3-3 2-6 14-30 11-28 6-22 4-22 3-34 1-21v-12l-2-33-9-92-2-28v-57l5-40 7-51 2-23 2-35 1-10v-18l-3-19-6-21-11-30-11-25-12-25-14-26-16-26-13-19-13-18-10-13-11-14-14-17-12-14-18-20-19-19-8-7-10-9-11-9-14-11-19-14-26-17-24-14-29-16-14-8 4-2 44-6 53-5z" fill="#336791"/>
<path transform="translate(841,618)" d="m0 0h33l20 4 13 5 12 7 11 10 9 13 7 16 6 25 7 37 6 39 3 26 3 50v35l-2 27-5 33-6 26-12 36-18 42-18 43-13 34-12 35-7 23h-12l-25-4-24-7-18-8-15-8-12-8-13-10-12-11-6-5-7-8-10-12-12-18-10-18-10-24-7-23-4-19-2-17v-38l7-57 1-14 2-55 1-57-1-42-2-24v-15l4-6 11-8 25-14 25-12 24-9 23-7 28-6zm6 28-13 5-7 6-3 8 1 9 7 14 8 10 7 6 14 7 9 2h19l12-3 11-6 10-9 6-10 1-4v-7l-4-8-7-7-10-6-15-5-12-2z" fill="#336791"/>
<path transform="translate(1503,609)" d="m0 0h37l36 1 7 1 3 3v12l-7 59-6 49-3 42v39l5 51 5 49 3 55v29l-2 22-5 25-9 27-5 11h-2l-18-38-12-22-15-28-12-22-15-28-17-33-15-32-15-36-16-42-7-21-6-24-4-24-2-23 1-21 4-21 5-13 6-10 11-12 14-9 12-6 19-6 16-3zm-4 22-21 3-16 5-9 5-5 5-3 4-1 3v7l3 7 7 8 7 6 13 6 5 1h16l11-3 14-7 10-10 6-11 2-5v-11l-4-6-9-4-16-3z" fill="#336791"/>
<path transform="translate(946,1253)" d="m0 0h14l8 4 10 9 8 9 7 14 2 7v18l-4 11-13 16-11 12-14 14-17 13-15 9-19 9-21 7-18 4-22 3h-44l-27-4-25-6-15-5-14-7 2-4 73-17 28-8 20-8 15-8 11-8 10-9 9-9 9-11 11-13 9-11 12-14 13-13z" fill="#336791"/>
<path transform="translate(1589,1248)" d="m0 0h14l10 4 12 7 19 7 18 4 37 4h27l54-5 34-4 19-3h5v3l-44 29-25 13-24 9-25 7-29 6-20 3-26 2-21 1h-26l-20-2-28-7-5-5 1-19 3-19 4-11 4-6 7-7 11-6 10-4z" fill="#336791"/>
</svg>
