<?xml version="1.0" encoding="UTF-8"?>
<svg version="1.1" viewBox="0 0 2048 2048" width="4096" height="4096" xmlns="http://www.w3.org/2000/svg">
<path transform="translate(1405,171)" d="m0 0h14l23 2 20 4 21 7 16 8 16 10 15 13 10 10 11 14 12 18 13 25 9 23 6 18 8 32 5 29 4 38 1 17v64l-3 44-6 50-8 47-9 43-4 17 18 6 32 10 34 12 41 16 29 13 25 12 24 12 23 13 26 16 19 13 19 14 16 13 11 10 8 7 16 16 7 8 12 15 12 17 10 18 8 17 7 21 4 21 1 10v17l-2 18-5 21-8 21-10 20-11 17-12 16-11 13-11 12-16 16-8 7-13 11-17 13-18 13-20 13-25 15-18 10-27 14-25 12-30 13-36 14-34 12-34 11-7 2 11 50 7 39 6 44 4 44 1 19v64l-3 39-5 35-6 27-7 25-9 25-14 29-12 19-11 14-12 13-12 11-17 12-17 9-22 8-17 4-15 2-14 1h-17l-24-2-28-5-26-7-24-8-27-11-29-14-23-12-27-16-39-26-18-13-17-13-14-11-13-11-11-9-14-12-13-12-8-7-15-14-5-5-4 2-12 11-16 15-8 7-14 12-13 11-14 11-18 14-18 13-17 12-23 15-21 13-25 14-25 13-29 13-35 13-31 9-30 6-17 2-15 1h-16l-23-2-20-4-17-5-20-9-16-10-10-8-10-9-10-10-13-17-11-18-10-19-9-23-8-26-6-26-5-31-3-31-1-18v-51l2-35 4-39 7-48 8-42 10-44 1-3-16-4-49-16-37-14-33-14-28-13-30-15-23-13-23-14-18-12-17-12-14-11-11-9-14-12-17-16-14-15-9-11-10-13-10-15-10-18-7-15-8-24-4-20-1-10v-21l3-22 6-21 8-20 10-19 8-12 14-19 10-11 7-8 18-18 8-7 13-11 20-15 20-14 21-13 19-11 24-13 28-14 34-15 41-16 40-14 42-13 10-2-7-28-9-44-7-41-5-39-3-33-1-17-1-32v-14l1-31 3-34 5-33 7-30 7-23 9-22 8-17 11-18 12-16 11-12 9-9 16-12 18-10 15-6 21-6 18-3 11-1h29l27 3 29 6 25 7 28 10 26 11 31 15 23 13 14 8 24 15 22 15 18 13 19 14 16 13 10 8 13 11 11 9 13 12 8 7 13 12 7 7 4-2 9-9 8-7 15-14 8-7 28-24 28-22 20-15 20-14 18-12 19-12 24-14 32-17 29-13 29-11 31-9 29-6 17-2zm-10 83-24 4-23 6-23 8-26 11-30 15-24 14-21 13-19 13-14 10-19 14-16 13-10 8-13 11-14 12-13 12-8 7-16 15v4l8 8 7 8 10 11 9 11 10 11 9 11 12 14 11 14 13 16 10 13 14 18 28 38 13 18 6 9 72 8 63 9 57 10 53 11 12 2 2-5 9-42 7-39 5-36 4-42 1-18v-61l-3-35-5-32-7-28-6-18-8-18-7-13-10-14-7-8-13-10-12-6-15-4-6-1zm-774 1-20 3-16 6-11 7-10 9-9 11-8 13-9 19-9 27-6 27-4 28-2 24-1 28v14l1 30 3 38 6 46 8 44 10 46 2 8 9-1 53-11 58-10 63-9 63-7 10-1 4-4 12-17 14-19 16-21 12-16 13-16 10-13 14-17 11-13 9-11 9-10 9-11 14-15 7-8 9-10-1-4-8-7-7-7-8-7-11-10-11-9-14-12-14-11-15-12-18-13-17-12-15-10-19-12-21-12-24-13-24-11-26-10-18-6-24-6-19-3-11-1zm401 246-14 15-7 8-9 10-9 11-10 11-9 11-14 17-13 16-13 17-11 14-3 5h14l29-1h138l29 1h15l-2-4-12-16-11-14-13-16-11-14-11-13-9-11-9-10-9-11-14-15-7-8-3-3zm-11 214-58 1-67 3-30 2-8 1-11 15-26 40-12 19-13 21-17 28-15 26-10 17-15 27-15 28-28 54-13 27 5 12 23 46 10 19 14 26 15 27 16 28 17 29 13 21 16 26 13 20 29 44 5 6 28 2 46 2 34 1h127l56-2 52-3 7-2 7-10 13-20 14-22 15-24 17-28 16-27 15-26 14-25 13-23 14-27 10-19 17-33 8-17-1-5-19-38-12-22-13-25-10-18-14-25-14-24-15-26-14-23-15-24-12-19-14-22-21-31-1-1-21-2-55-3-29-1-58-1zm292 18 2 5 15 24 17 28 16 27 15 26 14 25 13 23 17 32 4 5 6-13 20-50 13-35 14-40 8-25v-2l-30-7-58-11-51-8-29-4zm-567 0-50 7-59 10-45 9-13 3 2 9 13 40 14 39 15 39 16 39 3-3 14-27 12-22 15-27 14-24 15-26 14-23 15-24 11-17v-2zm-250 50-40 12-38 13-41 16-33 15-25 12-23 13-16 9-30 20-17 13-11 9-12 11-19 19-11 14-10 15-10 21-4 15-1 16 2 14 6 18 10 19 12 17 11 13 12 13 7 7 8 7 14 12 16 12 20 14 21 13 23 13 23 12 29 14 38 16 41 15 37 12 10 3 4-1 18-55 13-37 18-47 16-39 16-37 12-27-1-7-12-26-18-42-18-45-15-40-13-37-15-46zm1070 1-12 36-13 38-17 45-15 37-18 42-13 29-5 11 3 9 12 25 16 36 18 43 15 38 14 38 16 47 3 8 11-3 40-13 40-15 35-15 30-14 27-14 27-16 22-14 16-12 13-10 13-11 12-11 14-14 9-11 9-12 8-13 8-17 4-13 1-6v-19l-4-16-7-16-9-15-10-13-11-12-7-8-13-12-13-11-20-15-24-16-20-12-18-10-23-12-25-12-38-16-35-13-36-12-26-8zm-140 334-14 27-12 22-15 27-14 25-13 22-19 32-13 21-14 22v1l14-1 56-8 52-9 53-11 4-1-3-11-14-41-15-40-17-42-15-35zm-787 4-13 31-17 44-14 39-17 51 1 4 44 9 53 9 59 8 19 2-6-11-14-22-16-26-13-22-14-24-13-23-15-27-15-28-8-14zm870 244-48 10-49 9-52 8-65 8-41 4-11 15-14 20-28 38-13 17-10 13-11 14-9 11-13 16-22 26-13 15-12 13-5 7 14 14 8 7 14 13 11 9 10 9 11 9 16 13 12 9 19 14 36 24 20 12 18 10 19 10 25 11 25 9 24 7 21 4 8 1h33l15-3 14-5 14-9 14-14 9-13 10-18 9-23 7-23 6-29 4-31 2-29v-50l-3-44-4-34-7-44-9-43-4-17zm-954 4-6 24-9 44-7 43-5 44-2 31v56l3 36 5 30 6 25 7 20 8 18 10 16 8 10 11 11 13 8 13 5 15 3 10 1h17l26-3 23-5 29-9 27-11 25-12 25-13 25-15 30-20 14-10 16-12 18-14 13-11 11-9 15-13 26-24 3-3-2-4-8-8-7-8-11-12-9-11-11-12-9-11-13-15-8-10-13-16-13-17-12-15-21-28-26-36-4-2-63-6-64-8-57-9-57-11-9-2zm366 43 2 4 12 16 13 16 11 14 14 17 11 13 9 11 10 11 9 11 16 17 7 8 7-6 9-10 9-11 10-11 9-11 11-13 8-10 22-28 13-17 14-19 1-2h-23l-34 1h-121z" fill="#00D8FE"/>
<path transform="translate(1014,851)" d="m0 0h17l19 2 25 6 20 8 17 9 17 12 12 11 13 13 11 15 9 15 8 17 6 18 4 19 2 20v13l-2 21-6 25-7 18-11 21-10 14-13 15-13 12-15 11-17 10-16 7-15 5-18 4-16 2h-26l-21-3-19-5-20-8-17-9-14-10-13-11-12-12-13-17-9-15-9-19-6-19-4-20-1-9v-28l3-21 5-19 8-20 8-15 11-16 12-14 9-9 14-11 15-10 16-8 15-6 17-5 18-3z" fill="#00D8FE"/>
</svg>
