<?xml version="1.0" encoding="UTF-8"?>
<svg version="1.1" viewBox="0 0 2048 1228" width="3000" height="1799" xmlns="http://www.w3.org/2000/svg">
<path transform="translate(484,614)" d="m0 0h57l44 3 32 4 34 6 29 7 24 7 24 8 27 11 29 14 19 10 20 12 15 10 17 12 17 13 10 8 13 11 11 9 17 16 13 12 92 92 8 7 15 14 11 9 16 13 20 14 20 12 22 11 18 7 25 7 32 6 20 2h45l24-3 24-5 26-8 24-10 20-10 20-12 17-12 14-11 13-11 12-11 26-26 7-8 11-13 11-14 5-7 1 4-10 36-12 36-14 36-12 26-12 24-14 24-10 16-14 20-10 13-9 11-12 14-31 31-11 9-13 11-18 13-22 14-25 14-25 12-28 11-30 10-36 9-31 6-39 5-25 2-20 1h-56l-34-2-36-4-36-6-30-7-28-8-29-10-31-13-30-15-27-16-27-18-19-14-16-13-11-9-10-9-8-7-12-11-16-15-89-89-8-7-15-14-11-9-15-12-17-12-21-13-16-8-18-8-21-7-31-7-22-3-11-1h-45l-24 3-24 5-26 8-24 10-20 10-18 11-16 11-16 12-15 13-12 11-24 24-7 8-12 14-13 17-4 4 2-11 10-35 13-38 13-32 13-28 13-25 13-22 14-21 11-15 11-14 11-13 12-13 23-23 11-9 13-11 18-13 15-10 22-13 23-12 30-13 25-9 35-10 31-7 38-6 29-3z" fill="#06B6D4"/>
<path transform="translate(996)" d="m0 0h56l34 2 36 4 36 6 30 7 28 8 29 10 31 13 30 15 27 16 27 18 19 14 16 13 11 9 10 9 8 7 10 9 17 16 90 90 8 7 15 14 11 9 15 12 17 12 21 13 16 8 18 8 21 7 31 7 22 3 11 1h44l25-3 24-5 26-8 24-10 27-14 17-11 14-10 13-10 14-12 12-11 24-24 7-8 12-14 13-17 4-4-2 11-10 35-13 38-13 32-13 28-13 25-15 25-12 18-14 19-13 16-9 10-7 8-25 25-11 9-13 11-18 13-15 10-24 14-21 11-28 12-27 10-35 10-27 6-35 6-36 4-34 2h-56l-34-2-36-4-36-6-31-7-27-8-24-8-29-12-25-12-21-11-20-12-15-10-17-12-17-13-10-8-13-11-11-9-17-16-13-12-92-92-8-7-15-14-11-9-16-13-17-12-21-13-24-12-24-9-28-7-23-4-20-2h-45l-24 3-24 5-26 8-24 10-20 10-20 12-17 12-13 10-14 12-12 11-26 26-7 8-12 14-13 17-3 3 1-8 10-35 12-36 14-35 11-24 12-24 14-24 10-16 14-20 10-13 9-11 12-14 10-10 2-3h2v-2h2v-2l8-7 8-8 11-9 16-13 20-14 21-13 24-13 21-10 28-11 30-10 36-9 31-6 39-5 24-2z" fill="#06B6D4"/>
</svg>
