<?xml version="1.0" encoding="UTF-8"?>
<svg version="1.1" viewBox="0 0 2048 2048" width="3000" height="3000" xmlns="http://www.w3.org/2000/svg">
<path transform="translate(0)" d="m0 0h2048v2048h-2048z" fill="#0179CB"/>
<path transform="translate(1444,746)" d="m0 0h27l45 3 24 3 26 5 24 7 20 8 20 10 17 11 12 9 11 9 15 14 7 7 7 8 10 11 11 14 11 15 6 10 2 7-5 5-16 12-18 12-43 29-22 14-17 11-18 11h-7l-8-6-9-11-10-11-7-8-13-13-13-10-16-8-12-4-21-3h-33l-17 4-16 8-11 8-5 5-7 8-7 14-4 17-1 10 1 22 4 16 7 14 8 10 10 9 16 11 21 12 28 14 23 11 33 15 13 5 35 17 36 18 22 12 20 12 21 14 16 12 13 11 10 9 16 16 9 11 10 14 9 15 8 16 8 19 7 24 6 29 3 24 1 12v35l-3 27-5 24-7 23-9 21-10 19-10 15-10 13-11 12-17 17-11 9-15 11-18 11-19 10-27 11-31 10-26 7-17 3-12 1h-112l-26-2-20-4-30-8-29-10-26-11-24-12-20-12-12-8-16-12-11-9-12-11-20-20-9-11-10-13-12-18-12-20-5-9 1-5 9-6 24-14 21-12 25-14 28-17 26-15 17-9 5-1 7 7 9 14 11 14 12 13 15 15 11 9 17 13 19 11 19 7 29 7 25 4h26l23-4 25-7 19-8 14-9 10-9 8-10 8-13 3-7 1-5v-42l-3-13-8-14-11-13-13-11-17-11-22-12-24-12-36-16-63-29-29-14-23-12-24-14-21-14-16-12-14-12-16-15-16-17-12-17-10-18-12-23-8-19-6-21-3-24-1-31v-45l1-20 3-18 6-18 9-21 10-21 10-17 8-10 10-11 7-8 14-14 11-9 18-13 18-10 16-8 25-10 26-8 27-6z" fill="#FEFEFE"/>
<path transform="translate(438,757)" d="m0 0h278l365 1 1 1v168l-1 1h-265v755l-7 2-14 1h-122l-23-1-23-2-3-1v-754h-266v-169l1-1z" fill="#FEFEFE"/>
</svg>
